<svg width="32" height="36" viewBox="0 0 32 36" fill="none" xmlns="http://www.w3.org/2000/svg">
<rect width="32" height="36" rx="16" fill="#19669A"/>
<g filter="url(#filter0_dd_1_374)">
<rect width="32.02" height="36" rx="16.01" fill="white" fill-opacity="0.01" shape-rendering="crispEdges"/>
</g>
<path d="M16 18C16.55 18 17.0208 17.8042 17.4125 17.4125C17.8042 17.0208 18 16.55 18 16C18 15.45 17.8042 14.9792 17.4125 14.5875C17.0208 14.1958 16.55 14 16 14C15.45 14 14.9792 14.1958 14.5875 14.5875C14.1958 14.9792 14 15.45 14 16C14 16.55 14.1958 17.0208 14.5875 17.4125C14.9792 17.8042 15.45 18 16 18ZM16 25.35C18.0333 23.4833 19.5417 21.7875 20.525 20.2625C21.5083 18.7375 22 17.3833 22 16.2C22 14.3833 21.4208 12.8958 20.2625 11.7375C19.1042 10.5792 17.6833 10 16 10C14.3167 10 12.8958 10.5792 11.7375 11.7375C10.5792 12.8958 10 14.3833 10 16.2C10 17.3833 10.4917 18.7375 11.475 20.2625C12.4583 21.7875 13.9667 23.4833 16 25.35ZM16 28C13.3167 25.7167 11.3125 23.5958 9.9875 21.6375C8.6625 19.6792 8 17.8667 8 16.2C8 13.7 8.80417 11.7083 10.4125 10.225C12.0208 8.74167 13.8833 8 16 8C18.1167 8 19.9792 8.74167 21.5875 10.225C23.1958 11.7083 24 13.7 24 16.2C24 17.8667 23.3375 19.6792 22.0125 21.6375C20.6875 23.5958 18.6833 25.7167 16 28Z" fill="white"/>
<defs>
<filter id="filter0_dd_1_374" x="-12" y="-2" width="56.02" height="60" filterUnits="userSpaceOnUse" color-interpolation-filters="sRGB">
<feFlood flood-opacity="0" result="BackgroundImageFix"/>
<feColorMatrix in="SourceAlpha" type="matrix" values="0 0 0 0 0 0 0 0 0 0 0 0 0 0 0 0 0 0 127 0" result="hardAlpha"/>
<feMorphology radius="4" operator="erode" in="SourceAlpha" result="effect1_dropShadow_1_374"/>
<feOffset dy="4"/>
<feGaussianBlur stdDeviation="3"/>
<feComposite in2="hardAlpha" operator="out"/>
<feColorMatrix type="matrix" values="0 0 0 0 0 0 0 0 0 0 0 0 0 0 0 0 0 0 0.1 0"/>
<feBlend mode="normal" in2="BackgroundImageFix" result="effect1_dropShadow_1_374"/>
<feColorMatrix in="SourceAlpha" type="matrix" values="0 0 0 0 0 0 0 0 0 0 0 0 0 0 0 0 0 0 127 0" result="hardAlpha"/>
<feMorphology radius="3" operator="erode" in="SourceAlpha" result="effect2_dropShadow_1_374"/>
<feOffset dy="10"/>
<feGaussianBlur stdDeviation="7.5"/>
<feComposite in2="hardAlpha" operator="out"/>
<feColorMatrix type="matrix" values="0 0 0 0 0 0 0 0 0 0 0 0 0 0 0 0 0 0 0.1 0"/>
<feBlend mode="normal" in2="effect1_dropShadow_1_374" result="effect2_dropShadow_1_374"/>
<feBlend mode="normal" in="SourceGraphic" in2="effect2_dropShadow_1_374" result="shape"/>
</filter>
</defs>
</svg>
