<svg width="12" height="12" viewBox="0 0 12 12" fill="none" xmlns="http://www.w3.org/2000/svg">
<path d="M3.5 7.58333H4.66667V5.83333H6.70833V7.29167L8.75 5.25L6.70833 3.20833V4.66667H4.08333C3.91806 4.66667 3.77951 4.72257 3.66771 4.83437C3.5559 4.94618 3.5 5.08472 3.5 5.25V7.58333ZM5.83333 11.6667C5.6875 11.6667 5.5441 11.6375 5.40312 11.5792C5.26215 11.5208 5.13333 11.4333 5.01667 11.3167L0.35 6.65C0.233333 6.53333 0.145833 6.40451 0.0875 6.26354C0.0291667 6.12257 0 5.97917 0 5.83333C0 5.6875 0.0291667 5.5441 0.0875 5.40312C0.145833 5.26215 0.233333 5.13333 0.35 5.01667L5.01667 0.35C5.13333 0.233333 5.26215 0.145833 5.40312 0.0875C5.5441 0.0291667 5.6875 0 5.83333 0C5.97917 0 6.12257 0.0291667 6.26354 0.0875C6.40451 0.145833 6.53333 0.233333 6.65 0.35L11.3167 5.01667C11.4333 5.13333 11.5208 5.26215 11.5792 5.40312C11.6375 5.5441 11.6667 5.6875 11.6667 5.83333C11.6667 5.97917 11.6375 6.12257 11.5792 6.26354C11.5208 6.40451 11.4333 6.53333 11.3167 6.65L6.65 11.3167C6.53333 11.4333 6.40451 11.5208 6.26354 11.5792C6.12257 11.6375 5.97917 11.6667 5.83333 11.6667ZM3.5 8.16667L5.83333 10.5L10.5 5.83333L5.83333 1.16667L1.16667 5.83333L3.5 8.16667Z" fill="#19669A"/>
</svg>
