<svg width="687" height="798" viewBox="0 0 687 798" fill="none" xmlns="http://www.w3.org/2000/svg">
<g opacity="0.1">
<path d="M78.2519 538.312L128.982 299.644C108.105 288.845 92.1073 272.722 80.9901 251.275C69.8728 229.829 66.9015 206.933 72.0762 182.588L110.886 0L163.054 11.0886L124.244 193.676L150.328 199.221L189.138 16.633L241.306 27.7216L202.496 210.309L228.58 215.854L267.39 33.2659L319.558 44.3546L280.748 226.942C275.573 251.287 263.546 270.995 244.667 286.066C225.788 301.137 204.615 309.359 181.15 310.732L130.42 549.401L78.2519 538.312ZM339.091 593.755L383.446 385.084L305.194 368.451L344.004 185.863C351.674 149.78 370.928 121.726 401.765 101.7C432.603 81.6734 466.063 75.4952 502.146 83.1648L391.259 604.844L339.091 593.755Z" fill="#19669A"/>
</g>
</svg>
