<svg width="27" height="43" viewBox="0 0 27 43" fill="none" xmlns="http://www.w3.org/2000/svg">
<path d="M2.1 27L0 24.9L15.375 9.525C14.925 8.475 14.8625 7.2875 15.1875 5.9625C15.5125 4.6375 16.225 3.45 17.325 2.4C18.65 1.075 20.125 0.3 21.75 0.075C23.375 -0.15 24.7 0.25 25.725 1.275C26.75 2.3 27.15 3.625 26.925 5.25C26.7 6.875 25.925 8.35 24.6 9.675C23.55 10.775 22.3625 11.4875 21.0375 11.8125C19.7125 12.1375 18.525 12.075 17.475 11.625L15.6 13.5L27 24.9L24.9 27L13.5 15.675L2.1 27ZM6.525 14.175L2.025 9.675C0.675 8.325 0 6.7125 0 4.8375C0 2.9625 0.675 1.35 2.025 0L11.325 9.375L6.525 14.175Z" fill="white"/>
</svg>
