<svg width="20" height="20" viewBox="0 0 20 20" fill="none" xmlns="http://www.w3.org/2000/svg">
<path d="M6 20V18.25C4.25 17.55 2.8125 16.4667 1.6875 15C0.5625 13.5333 0 11.8667 0 10C0 8.61667 0.2625 7.31667 0.7875 6.1C1.3125 4.88333 2.025 3.825 2.925 2.925C3.825 2.025 4.88333 1.3125 6.1 0.7875C7.31667 0.2625 8.61667 0 10 0C11.3833 0 12.6833 0.2625 13.9 0.7875C15.1167 1.3125 16.175 2.025 17.075 2.925C17.975 3.825 18.6875 4.88333 19.2125 6.1C19.7375 7.31667 20 8.61667 20 10C20 11.8667 19.4375 13.5333 18.3125 15C17.1875 16.4667 15.75 17.55 14 18.25V20H6ZM8 10H12V2.25C11.6667 2.16667 11.3333 2.10417 11 2.0625C10.6667 2.02083 10.3333 2 10 2C9.66667 2 9.33333 2.02083 9 2.0625C8.66667 2.10417 8.33333 2.16667 8 2.25V10ZM2 10H6V3.075C4.75 3.79167 3.77083 4.76667 3.0625 6C2.35417 7.23333 2 8.56667 2 10ZM14 10H18C18 8.56667 17.6458 7.23333 16.9375 6C16.2292 4.76667 15.25 3.79167 14 3.075V10ZM8 18H12V16.9C13.2 16.4167 14.3083 15.7792 15.325 14.9875C16.3417 14.1958 17.1 13.2 17.6 12H2.4C2.9 13.2 3.65833 14.1958 4.675 14.9875C5.69167 15.7792 6.8 16.4167 8 16.9V18ZM8 18H12H8Z" fill="#66199A"/>
</svg>
